<?xml version="1.0" encoding="UTF-8"?>
<svg xmlns="http://www.w3.org/2000/svg" xmlns:xlink="http://www.w3.org/1999/xlink" width="24px" height="24px" viewBox="0 0 24 24" version="1.1">
<g id="surface1">
<path style=" stroke:none;fill-rule:nonzero;fill:rgb(0%,0%,0%);fill-opacity:1;" d="M 21.582031 0.753906 L 2.414062 0.753906 C 2.40625 0.753906 2.402344 0.753906 2.394531 0.753906 C 1.492188 0.753906 0.765625 1.476562 0.753906 2.371094 L 0.753906 21.625 C 0.765625 22.523438 1.492188 23.246094 2.394531 23.246094 C 2.402344 23.246094 2.40625 23.246094 2.414062 23.246094 L 21.582031 23.246094 C 21.585938 23.246094 21.59375 23.246094 21.601562 23.246094 C 22.503906 23.246094 23.234375 22.523438 23.246094 21.628906 L 23.246094 2.375 C 23.234375 1.476562 22.503906 0.753906 21.601562 0.753906 C 21.59375 0.753906 21.585938 0.753906 21.578125 0.753906 Z M 7.425781 19.921875 L 4.085938 19.921875 L 4.085938 9.1875 L 7.425781 9.1875 Z M 5.753906 7.71875 C 4.6875 7.71875 3.820312 6.851562 3.820312 5.785156 C 3.820312 4.71875 4.6875 3.851562 5.753906 3.851562 C 6.824219 3.851562 7.691406 4.714844 7.691406 5.785156 C 7.691406 5.785156 7.691406 5.785156 7.691406 5.789062 C 7.691406 6.855469 6.824219 7.71875 5.757812 7.71875 C 5.757812 7.71875 5.753906 7.71875 5.753906 7.71875 Z M 19.917969 19.921875 L 16.585938 19.921875 L 16.585938 14.703125 C 16.585938 13.457031 16.5625 11.855469 14.851562 11.855469 C 13.113281 11.855469 12.847656 13.210938 12.847656 14.609375 L 12.847656 19.921875 L 9.519531 19.921875 L 9.519531 9.1875 L 12.71875 9.1875 L 12.71875 10.652344 L 12.761719 10.652344 C 13.382812 9.605469 14.503906 8.914062 15.789062 8.914062 C 15.835938 8.914062 15.882812 8.917969 15.925781 8.917969 L 15.917969 8.917969 C 19.292969 8.917969 19.917969 11.140625 19.917969 14.03125 Z M 19.917969 19.921875 "/>
</g>
</svg>
