<?xml version="1.0" encoding="UTF-8"?>
<svg xmlns="http://www.w3.org/2000/svg" xmlns:xlink="http://www.w3.org/1999/xlink" width="26px" height="26px" viewBox="0 0 26 26" version="1.1">
<g id="surface1">
<path style=" stroke:none;fill-rule:nonzero;fill:rgb(0%,0%,0%);fill-opacity:1;" d="M 13 2.207031 C 7.042969 2.207031 2.167969 7.074219 2.167969 13.0625 C 2.167969 18.480469 6.132812 22.980469 11.3125 23.792969 L 11.3125 16.210938 L 8.558594 16.210938 L 8.558594 13.0625 L 11.3125 13.0625 L 11.3125 10.671875 C 11.3125 7.953125 12.925781 6.460938 15.402344 6.460938 C 16.585938 6.460938 17.820312 6.664062 17.820312 6.664062 L 17.820312 9.339844 L 16.457031 9.339844 C 15.113281 9.339844 14.6875 10.171875 14.6875 11.03125 L 14.6875 13.0625 L 17.703125 13.0625 L 17.214844 16.210938 L 14.6875 16.210938 L 14.6875 23.792969 C 17.246094 23.386719 19.566406 22.085938 21.242188 20.117188 C 22.917969 18.148438 23.835938 15.648438 23.832031 13.0625 C 23.832031 7.074219 18.957031 2.207031 13 2.207031 Z M 13 2.207031 "/>
</g>
</svg>
