<?xml version="1.0" encoding="UTF-8"?>
<svg xmlns="http://www.w3.org/2000/svg" xmlns:xlink="http://www.w3.org/1999/xlink" width="24px" height="24px" viewBox="0 0 24 24" version="1.1">
<g id="surface1">
<path style=" stroke:none;fill-rule:evenodd;fill:rgb(0%,0%,0%);fill-opacity:1;" d="M 9.585938 15.101562 L 9.585938 8.367188 C 11.976562 9.492188 13.828125 10.582031 16.019531 11.753906 C 14.210938 12.753906 11.976562 13.878906 9.585938 15.101562 M 22.910156 5.019531 C 22.496094 4.476562 21.792969 4.054688 21.046875 3.914062 C 18.847656 3.496094 5.125 3.496094 2.925781 3.914062 C 2.328125 4.027344 1.792969 4.296875 1.332031 4.71875 C -0.601562 6.515625 0.00390625 16.140625 0.472656 17.699219 C 0.667969 18.375 0.921875 18.863281 1.242188 19.183594 C 1.652344 19.605469 2.214844 19.894531 2.859375 20.027344 C 4.671875 20.402344 14 20.609375 21.007812 20.082031 C 21.652344 19.96875 22.222656 19.667969 22.675781 19.230469 C 24.464844 17.441406 24.339844 7.273438 22.910156 5.019531 "/>
</g>
</svg>
