<?xml version="1.0" encoding="UTF-8"?>
<svg xmlns="http://www.w3.org/2000/svg" xmlns:xlink="http://www.w3.org/1999/xlink" width="24px" height="24px" viewBox="0 0 24 24" version="1.1">
<g id="surface1">
<path style=" stroke:none;fill-rule:evenodd;fill:rgb(5.882353%,5.882353%,5.882353%);fill-opacity:1;" d="M 12 18 C 15.3125 18 18 15.3125 18 12 C 18 8.6875 15.3125 6 12 6 C 8.6875 6 6 8.6875 6 12 C 6 15.3125 8.6875 18 12 18 Z M 12 16 C 14.210938 16 16 14.210938 16 12 C 16 9.789062 14.210938 8 12 8 C 9.789062 8 8 9.789062 8 12 C 8 14.210938 9.789062 16 12 16 Z M 12 16 "/>
<path style=" stroke:none;fill-rule:nonzero;fill:rgb(5.882353%,5.882353%,5.882353%);fill-opacity:1;" d="M 18 5 C 17.449219 5 17 5.449219 17 6 C 17 6.550781 17.449219 7 18 7 C 18.550781 7 19 6.550781 19 6 C 19 5.449219 18.550781 5 18 5 Z M 18 5 "/>
<path style=" stroke:none;fill-rule:evenodd;fill:rgb(5.882353%,5.882353%,5.882353%);fill-opacity:1;" d="M 1.652344 4.277344 C 1 5.558594 1 7.238281 1 10.601562 L 1 13.398438 C 1 16.761719 1 18.441406 1.652344 19.722656 C 2.230469 20.851562 3.148438 21.769531 4.277344 22.347656 C 5.558594 23 7.238281 23 10.601562 23 L 13.398438 23 C 16.761719 23 18.441406 23 19.722656 22.347656 C 20.851562 21.769531 21.769531 20.851562 22.347656 19.722656 C 23 18.441406 23 16.761719 23 13.398438 L 23 10.601562 C 23 7.238281 23 5.558594 22.347656 4.277344 C 21.769531 3.148438 20.851562 2.230469 19.722656 1.652344 C 18.441406 1 16.761719 1 13.398438 1 L 10.601562 1 C 7.238281 1 5.558594 1 4.277344 1.652344 C 3.148438 2.230469 2.230469 3.148438 1.652344 4.277344 Z M 13.398438 3 L 10.601562 3 C 8.886719 3 7.722656 3 6.820312 3.074219 C 5.945312 3.148438 5.496094 3.277344 5.183594 3.4375 C 4.429688 3.820312 3.820312 4.429688 3.4375 5.183594 C 3.277344 5.496094 3.148438 5.945312 3.074219 6.820312 C 3 7.722656 3 8.886719 3 10.601562 L 3 13.398438 C 3 15.113281 3 16.277344 3.074219 17.179688 C 3.148438 18.054688 3.277344 18.503906 3.4375 18.816406 C 3.820312 19.570312 4.429688 20.179688 5.183594 20.5625 C 5.496094 20.722656 5.945312 20.851562 6.820312 20.925781 C 7.722656 21 8.886719 21 10.601562 21 L 13.398438 21 C 15.113281 21 16.277344 21 17.179688 20.925781 C 18.054688 20.851562 18.503906 20.722656 18.816406 20.5625 C 19.570312 20.179688 20.179688 19.570312 20.5625 18.816406 C 20.722656 18.503906 20.851562 18.054688 20.925781 17.179688 C 21 16.277344 21 15.113281 21 13.398438 L 21 10.601562 C 21 8.886719 21 7.722656 20.925781 6.820312 C 20.851562 5.945312 20.722656 5.496094 20.5625 5.183594 C 20.179688 4.429688 19.570312 3.820312 18.816406 3.4375 C 18.503906 3.277344 18.054688 3.148438 17.179688 3.074219 C 16.277344 3 15.113281 3 13.398438 3 Z M 13.398438 3 "/>
</g>
</svg>
